<mxfile host="Electron" agent="Mozilla/5.0 (Macintosh; Intel Mac OS X 10_15_7) AppleWebKit/537.36 (KHTML, like Gecko) draw.io/28.0.6 Chrome/138.0.7204.100 Electron/37.2.3 Safari/537.36" version="28.0.6">
  <diagram name="ページ1" id="4fVLH5OawdD7QDEinrEM">
    <mxGraphModel dx="1426" dy="912" grid="1" gridSize="10" guides="1" tooltips="1" connect="1" arrows="1" fold="1" page="1" pageScale="1" pageWidth="827" pageHeight="1169" math="0" shadow="0">
      <root>
        <mxCell id="0" />
        <mxCell id="1" parent="0" />
        <mxCell id="1wXAVO4LF3XPY_xMzL_y-1" value="AWS Cloud" style="points=[[0,0],[0.25,0],[0.5,0],[0.75,0],[1,0],[1,0.25],[1,0.5],[1,0.75],[1,1],[0.75,1],[0.5,1],[0.25,1],[0,1],[0,0.75],[0,0.5],[0,0.25]];outlineConnect=0;gradientColor=none;html=1;whiteSpace=wrap;fontSize=12;fontStyle=0;container=1;pointerEvents=0;collapsible=0;recursiveResize=0;shape=mxgraph.aws4.group;grIcon=mxgraph.aws4.group_aws_cloud_alt;strokeColor=#232F3E;fillColor=none;verticalAlign=top;align=left;spacingLeft=30;fontColor=#232F3E;dashed=0;movable=1;resizable=1;rotatable=1;deletable=1;editable=1;locked=0;connectable=1;" vertex="1" parent="1">
          <mxGeometry x="160" y="270" width="1020" height="720" as="geometry" />
        </mxCell>
        <mxCell id="1wXAVO4LF3XPY_xMzL_y-3" value="Region(ap-northeast-1)" style="points=[[0,0],[0.25,0],[0.5,0],[0.75,0],[1,0],[1,0.25],[1,0.5],[1,0.75],[1,1],[0.75,1],[0.5,1],[0.25,1],[0,1],[0,0.75],[0,0.5],[0,0.25]];outlineConnect=0;gradientColor=none;html=1;whiteSpace=wrap;fontSize=12;fontStyle=0;container=1;pointerEvents=0;collapsible=0;recursiveResize=0;shape=mxgraph.aws4.group;grIcon=mxgraph.aws4.group_region;strokeColor=#00A4A6;fillColor=none;verticalAlign=top;align=left;spacingLeft=30;fontColor=#147EBA;dashed=1;movable=1;resizable=1;rotatable=1;deletable=1;editable=1;locked=0;connectable=1;" vertex="1" parent="1wXAVO4LF3XPY_xMzL_y-1">
          <mxGeometry x="20" y="40" width="960" height="660" as="geometry" />
        </mxCell>
        <mxCell id="1wXAVO4LF3XPY_xMzL_y-4" value="VPC" style="points=[[0,0],[0.25,0],[0.5,0],[0.75,0],[1,0],[1,0.25],[1,0.5],[1,0.75],[1,1],[0.75,1],[0.5,1],[0.25,1],[0,1],[0,0.75],[0,0.5],[0,0.25]];outlineConnect=0;gradientColor=none;html=1;whiteSpace=wrap;fontSize=12;fontStyle=0;container=1;pointerEvents=0;collapsible=0;recursiveResize=0;shape=mxgraph.aws4.group;grIcon=mxgraph.aws4.group_vpc2;strokeColor=#8C4FFF;fillColor=none;verticalAlign=top;align=left;spacingLeft=30;fontColor=#AAB7B8;dashed=0;" vertex="1" parent="1wXAVO4LF3XPY_xMzL_y-3">
          <mxGeometry x="40" y="80" width="900" height="560" as="geometry" />
        </mxCell>
        <mxCell id="1wXAVO4LF3XPY_xMzL_y-16" value="ALB" style="sketch=0;outlineConnect=0;fontColor=#232F3E;gradientColor=none;fillColor=#8C4FFF;strokeColor=none;dashed=0;verticalLabelPosition=bottom;verticalAlign=top;align=center;html=1;fontSize=12;fontStyle=0;aspect=fixed;pointerEvents=1;shape=mxgraph.aws4.application_load_balancer;" vertex="1" parent="1wXAVO4LF3XPY_xMzL_y-4">
          <mxGeometry x="450" y="185" width="48" height="48" as="geometry" />
        </mxCell>
        <mxCell id="1wXAVO4LF3XPY_xMzL_y-7" value="" style="sketch=0;points=[[0,0,0],[0.25,0,0],[0.5,0,0],[0.75,0,0],[1,0,0],[0,1,0],[0.25,1,0],[0.5,1,0],[0.75,1,0],[1,1,0],[0,0.25,0],[0,0.5,0],[0,0.75,0],[1,0.25,0],[1,0.5,0],[1,0.75,0]];outlineConnect=0;fontColor=#232F3E;fillColor=#ED7100;strokeColor=#ffffff;dashed=0;verticalLabelPosition=bottom;verticalAlign=top;align=center;html=1;fontSize=12;fontStyle=0;aspect=fixed;shape=mxgraph.aws4.resourceIcon;resIcon=mxgraph.aws4.ec2;" vertex="1" parent="1wXAVO4LF3XPY_xMzL_y-3">
          <mxGeometry x="286" y="460" width="48" height="48" as="geometry" />
        </mxCell>
        <mxCell id="1wXAVO4LF3XPY_xMzL_y-8" value="Private subnet" style="points=[[0,0],[0.25,0],[0.5,0],[0.75,0],[1,0],[1,0.25],[1,0.5],[1,0.75],[1,1],[0.75,1],[0.5,1],[0.25,1],[0,1],[0,0.75],[0,0.5],[0,0.25]];outlineConnect=0;gradientColor=none;html=1;whiteSpace=wrap;fontSize=12;fontStyle=0;container=1;pointerEvents=0;collapsible=0;recursiveResize=0;shape=mxgraph.aws4.group;grIcon=mxgraph.aws4.group_security_group;grStroke=0;strokeColor=#00A4A6;fillColor=#E6F6F7;verticalAlign=top;align=left;spacingLeft=30;fontColor=#147EBA;dashed=0;" vertex="1" parent="1wXAVO4LF3XPY_xMzL_y-3">
          <mxGeometry x="150" y="340" width="330" height="280" as="geometry" />
        </mxCell>
        <mxCell id="1wXAVO4LF3XPY_xMzL_y-9" value="EC2 #1" style="sketch=0;points=[[0,0,0],[0.25,0,0],[0.5,0,0],[0.75,0,0],[1,0,0],[0,1,0],[0.25,1,0],[0.5,1,0],[0.75,1,0],[1,1,0],[0,0.25,0],[0,0.5,0],[0,0.75,0],[1,0.25,0],[1,0.5,0],[1,0.75,0]];outlineConnect=0;fontColor=#232F3E;fillColor=#ED7100;strokeColor=#ffffff;dashed=0;verticalLabelPosition=bottom;verticalAlign=top;align=center;html=1;fontSize=12;fontStyle=0;aspect=fixed;shape=mxgraph.aws4.resourceIcon;resIcon=mxgraph.aws4.ec2;" vertex="1" parent="1wXAVO4LF3XPY_xMzL_y-8">
          <mxGeometry x="129.5" y="50" width="58" height="58" as="geometry" />
        </mxCell>
        <mxCell id="1wXAVO4LF3XPY_xMzL_y-18" value="RDS #1" style="sketch=0;points=[[0,0,0],[0.25,0,0],[0.5,0,0],[0.75,0,0],[1,0,0],[0,1,0],[0.25,1,0],[0.5,1,0],[0.75,1,0],[1,1,0],[0,0.25,0],[0,0.5,0],[0,0.75,0],[1,0.25,0],[1,0.5,0],[1,0.75,0]];outlineConnect=0;fontColor=#232F3E;fillColor=#C925D1;strokeColor=#ffffff;dashed=0;verticalLabelPosition=bottom;verticalAlign=top;align=center;html=1;fontSize=12;fontStyle=0;aspect=fixed;shape=mxgraph.aws4.resourceIcon;resIcon=mxgraph.aws4.rds;" vertex="1" parent="1wXAVO4LF3XPY_xMzL_y-8">
          <mxGeometry x="128.5" y="170" width="60" height="60" as="geometry" />
        </mxCell>
        <mxCell id="1wXAVO4LF3XPY_xMzL_y-25" style="rounded=0;orthogonalLoop=1;jettySize=auto;html=1;entryX=0.5;entryY=0;entryDx=0;entryDy=0;entryPerimeter=0;" edge="1" parent="1wXAVO4LF3XPY_xMzL_y-8" source="1wXAVO4LF3XPY_xMzL_y-9" target="1wXAVO4LF3XPY_xMzL_y-18">
          <mxGeometry relative="1" as="geometry" />
        </mxCell>
        <mxCell id="1wXAVO4LF3XPY_xMzL_y-10" value="Private subnet" style="points=[[0,0],[0.25,0],[0.5,0],[0.75,0],[1,0],[1,0.25],[1,0.5],[1,0.75],[1,1],[0.75,1],[0.5,1],[0.25,1],[0,1],[0,0.75],[0,0.5],[0,0.25]];outlineConnect=0;gradientColor=none;html=1;whiteSpace=wrap;fontSize=12;fontStyle=0;container=1;pointerEvents=0;collapsible=0;recursiveResize=0;shape=mxgraph.aws4.group;grIcon=mxgraph.aws4.group_security_group;grStroke=0;strokeColor=#00A4A6;fillColor=#E6F6F7;verticalAlign=top;align=left;spacingLeft=30;fontColor=#147EBA;dashed=0;" vertex="1" parent="1wXAVO4LF3XPY_xMzL_y-3">
          <mxGeometry x="545" y="340" width="330" height="280" as="geometry" />
        </mxCell>
        <mxCell id="1wXAVO4LF3XPY_xMzL_y-11" value="EC2 #2" style="sketch=0;points=[[0,0,0],[0.25,0,0],[0.5,0,0],[0.75,0,0],[1,0,0],[0,1,0],[0.25,1,0],[0.5,1,0],[0.75,1,0],[1,1,0],[0,0.25,0],[0,0.5,0],[0,0.75,0],[1,0.25,0],[1,0.5,0],[1,0.75,0]];outlineConnect=0;fontColor=#232F3E;fillColor=#ED7100;strokeColor=#ffffff;dashed=0;verticalLabelPosition=bottom;verticalAlign=top;align=center;html=1;fontSize=12;fontStyle=0;aspect=fixed;shape=mxgraph.aws4.resourceIcon;resIcon=mxgraph.aws4.ec2;" vertex="1" parent="1wXAVO4LF3XPY_xMzL_y-10">
          <mxGeometry x="141" y="50" width="58" height="58" as="geometry" />
        </mxCell>
        <mxCell id="1wXAVO4LF3XPY_xMzL_y-19" value="RDS #2" style="sketch=0;points=[[0,0,0],[0.25,0,0],[0.5,0,0],[0.75,0,0],[1,0,0],[0,1,0],[0.25,1,0],[0.5,1,0],[0.75,1,0],[1,1,0],[0,0.25,0],[0,0.5,0],[0,0.75,0],[1,0.25,0],[1,0.5,0],[1,0.75,0]];outlineConnect=0;fontColor=#232F3E;fillColor=#C925D1;strokeColor=#ffffff;dashed=0;verticalLabelPosition=bottom;verticalAlign=top;align=center;html=1;fontSize=12;fontStyle=0;aspect=fixed;shape=mxgraph.aws4.resourceIcon;resIcon=mxgraph.aws4.rds;" vertex="1" parent="1wXAVO4LF3XPY_xMzL_y-10">
          <mxGeometry x="140" y="170" width="60" height="60" as="geometry" />
        </mxCell>
        <mxCell id="1wXAVO4LF3XPY_xMzL_y-12" value="Public subnet" style="points=[[0,0],[0.25,0],[0.5,0],[0.75,0],[1,0],[1,0.25],[1,0.5],[1,0.75],[1,1],[0.75,1],[0.5,1],[0.25,1],[0,1],[0,0.75],[0,0.5],[0,0.25]];outlineConnect=0;gradientColor=none;html=1;whiteSpace=wrap;fontSize=12;fontStyle=0;container=1;pointerEvents=0;collapsible=0;recursiveResize=0;shape=mxgraph.aws4.group;grIcon=mxgraph.aws4.group_security_group;grStroke=0;strokeColor=#7AA116;fillColor=#F2F6E8;verticalAlign=top;align=left;spacingLeft=30;fontColor=#248814;dashed=0;" vertex="1" parent="1wXAVO4LF3XPY_xMzL_y-3">
          <mxGeometry x="150" y="130" width="330" height="190" as="geometry" />
        </mxCell>
        <mxCell id="1wXAVO4LF3XPY_xMzL_y-14" value="NATGW" style="sketch=0;outlineConnect=0;fontColor=#232F3E;gradientColor=none;fillColor=#8C4FFF;strokeColor=none;dashed=0;verticalLabelPosition=bottom;verticalAlign=top;align=center;html=1;fontSize=12;fontStyle=0;aspect=fixed;pointerEvents=1;shape=mxgraph.aws4.nat_gateway;" vertex="1" parent="1wXAVO4LF3XPY_xMzL_y-12">
          <mxGeometry x="136" y="72.5" width="45" height="45" as="geometry" />
        </mxCell>
        <mxCell id="1wXAVO4LF3XPY_xMzL_y-13" value="Public subnet" style="points=[[0,0],[0.25,0],[0.5,0],[0.75,0],[1,0],[1,0.25],[1,0.5],[1,0.75],[1,1],[0.75,1],[0.5,1],[0.25,1],[0,1],[0,0.75],[0,0.5],[0,0.25]];outlineConnect=0;gradientColor=none;html=1;whiteSpace=wrap;fontSize=12;fontStyle=0;container=1;pointerEvents=0;collapsible=0;recursiveResize=0;shape=mxgraph.aws4.group;grIcon=mxgraph.aws4.group_security_group;grStroke=0;strokeColor=#7AA116;fillColor=#F2F6E8;verticalAlign=top;align=left;spacingLeft=30;fontColor=#248814;dashed=0;" vertex="1" parent="1wXAVO4LF3XPY_xMzL_y-3">
          <mxGeometry x="550" y="130" width="330" height="190" as="geometry" />
        </mxCell>
        <mxCell id="1wXAVO4LF3XPY_xMzL_y-15" value="NATGW" style="sketch=0;outlineConnect=0;fontColor=#232F3E;gradientColor=none;fillColor=#8C4FFF;strokeColor=none;dashed=0;verticalLabelPosition=bottom;verticalAlign=top;align=center;html=1;fontSize=12;fontStyle=0;aspect=fixed;pointerEvents=1;shape=mxgraph.aws4.nat_gateway;" vertex="1" parent="1wXAVO4LF3XPY_xMzL_y-13">
          <mxGeometry x="137.5" y="72.5" width="45" height="45" as="geometry" />
        </mxCell>
        <mxCell id="1wXAVO4LF3XPY_xMzL_y-17" value="IGW" style="sketch=0;outlineConnect=0;fontColor=#232F3E;gradientColor=none;fillColor=#8C4FFF;strokeColor=none;dashed=0;verticalLabelPosition=bottom;verticalAlign=top;align=center;html=1;fontSize=12;fontStyle=0;aspect=fixed;pointerEvents=1;shape=mxgraph.aws4.internet_gateway;" vertex="1" parent="1wXAVO4LF3XPY_xMzL_y-3">
          <mxGeometry x="360" y="50" width="48" height="48" as="geometry" />
        </mxCell>
        <mxCell id="1wXAVO4LF3XPY_xMzL_y-22" style="rounded=0;orthogonalLoop=1;jettySize=auto;html=1;" edge="1" parent="1wXAVO4LF3XPY_xMzL_y-3" source="1wXAVO4LF3XPY_xMzL_y-16" target="1wXAVO4LF3XPY_xMzL_y-9">
          <mxGeometry relative="1" as="geometry" />
        </mxCell>
        <mxCell id="1wXAVO4LF3XPY_xMzL_y-23" style="rounded=0;orthogonalLoop=1;jettySize=auto;html=1;entryX=0.5;entryY=0;entryDx=0;entryDy=0;entryPerimeter=0;" edge="1" parent="1wXAVO4LF3XPY_xMzL_y-3" source="1wXAVO4LF3XPY_xMzL_y-16" target="1wXAVO4LF3XPY_xMzL_y-11">
          <mxGeometry relative="1" as="geometry" />
        </mxCell>
        <mxCell id="1wXAVO4LF3XPY_xMzL_y-26" style="rounded=0;orthogonalLoop=1;jettySize=auto;html=1;entryX=0.5;entryY=1;entryDx=0;entryDy=0;entryPerimeter=0;exitX=0.5;exitY=1;exitDx=0;exitDy=0;exitPerimeter=0;" edge="1" parent="1wXAVO4LF3XPY_xMzL_y-3" source="1wXAVO4LF3XPY_xMzL_y-11" target="1wXAVO4LF3XPY_xMzL_y-7">
          <mxGeometry relative="1" as="geometry" />
        </mxCell>
        <mxCell id="1wXAVO4LF3XPY_xMzL_y-27" style="edgeStyle=orthogonalEdgeStyle;rounded=0;orthogonalLoop=1;jettySize=auto;html=1;" edge="1" parent="1wXAVO4LF3XPY_xMzL_y-3" source="1wXAVO4LF3XPY_xMzL_y-18" target="1wXAVO4LF3XPY_xMzL_y-19">
          <mxGeometry relative="1" as="geometry" />
        </mxCell>
        <mxCell id="1wXAVO4LF3XPY_xMzL_y-29" style="edgeStyle=orthogonalEdgeStyle;rounded=0;orthogonalLoop=1;jettySize=auto;html=1;" edge="1" parent="1wXAVO4LF3XPY_xMzL_y-3" source="1wXAVO4LF3XPY_xMzL_y-9" target="1wXAVO4LF3XPY_xMzL_y-14">
          <mxGeometry relative="1" as="geometry" />
        </mxCell>
        <mxCell id="1wXAVO4LF3XPY_xMzL_y-30" style="edgeStyle=orthogonalEdgeStyle;rounded=0;orthogonalLoop=1;jettySize=auto;html=1;" edge="1" parent="1wXAVO4LF3XPY_xMzL_y-3" source="1wXAVO4LF3XPY_xMzL_y-14" target="1wXAVO4LF3XPY_xMzL_y-17">
          <mxGeometry relative="1" as="geometry" />
        </mxCell>
        <mxCell id="1wXAVO4LF3XPY_xMzL_y-31" style="edgeStyle=orthogonalEdgeStyle;rounded=0;orthogonalLoop=1;jettySize=auto;html=1;" edge="1" parent="1wXAVO4LF3XPY_xMzL_y-3" source="1wXAVO4LF3XPY_xMzL_y-15" target="1wXAVO4LF3XPY_xMzL_y-17">
          <mxGeometry relative="1" as="geometry" />
        </mxCell>
        <mxCell id="1wXAVO4LF3XPY_xMzL_y-21" style="edgeStyle=orthogonalEdgeStyle;rounded=0;orthogonalLoop=1;jettySize=auto;html=1;" edge="1" parent="1" source="1wXAVO4LF3XPY_xMzL_y-20" target="1wXAVO4LF3XPY_xMzL_y-16">
          <mxGeometry relative="1" as="geometry">
            <mxPoint x="710" y="250" as="targetPoint" />
          </mxGeometry>
        </mxCell>
        <mxCell id="1wXAVO4LF3XPY_xMzL_y-28" value="HTTP" style="edgeLabel;html=1;align=center;verticalAlign=middle;resizable=0;points=[];" vertex="1" connectable="0" parent="1wXAVO4LF3XPY_xMzL_y-21">
          <mxGeometry x="-0.7219" relative="1" as="geometry">
            <mxPoint as="offset" />
          </mxGeometry>
        </mxCell>
        <mxCell id="1wXAVO4LF3XPY_xMzL_y-20" value="User" style="sketch=0;outlineConnect=0;fontColor=#232F3E;gradientColor=none;fillColor=#232F3D;strokeColor=none;dashed=0;verticalLabelPosition=bottom;verticalAlign=top;align=center;html=1;fontSize=12;fontStyle=0;aspect=fixed;pointerEvents=1;shape=mxgraph.aws4.user;" vertex="1" parent="1">
          <mxGeometry x="800" y="170" width="58" height="58" as="geometry" />
        </mxCell>
        <mxCell id="1wXAVO4LF3XPY_xMzL_y-32" value="" style="sketch=0;outlineConnect=0;fontColor=#232F3E;gradientColor=none;fillColor=#232F3D;strokeColor=none;dashed=0;verticalLabelPosition=bottom;verticalAlign=top;align=center;html=1;fontSize=12;fontStyle=0;aspect=fixed;pointerEvents=1;shape=mxgraph.aws4.internet_alt2;" vertex="1" parent="1">
          <mxGeometry x="525" y="140" width="78" height="78" as="geometry" />
        </mxCell>
        <mxCell id="1wXAVO4LF3XPY_xMzL_y-33" style="edgeStyle=orthogonalEdgeStyle;rounded=0;orthogonalLoop=1;jettySize=auto;html=1;" edge="1" parent="1" source="1wXAVO4LF3XPY_xMzL_y-17" target="1wXAVO4LF3XPY_xMzL_y-32">
          <mxGeometry relative="1" as="geometry" />
        </mxCell>
      </root>
    </mxGraphModel>
  </diagram>
</mxfile>
